<svg width="41" height="40" viewBox="0 0 41 40" fill="none" xmlns="http://www.w3.org/2000/svg">
<g clip-path="url(#clip0_169_15)">
<path d="M34.2354 0H5.87564C2.63578 0 0 2.62848 0 5.85938V34.1406C0 37.3715 2.63578 40 5.87564 40H34.2354C37.4753 40 40.111 37.3715 40.111 34.1406V5.85938C40.111 2.62848 37.4753 0 34.2354 0ZM37.7608 34.1406C37.7608 36.0791 36.1793 37.6562 34.2354 37.6562H5.87564C3.93178 37.6562 2.35026 36.0791 2.35026 34.1406V5.85938C2.35026 3.9209 3.93178 2.34375 5.87564 2.34375H34.2354C36.1793 2.34375 37.7608 3.9209 37.7608 5.85938V34.1406Z" fill="#070707" stroke="#070707" stroke-width="0.5"/>
<path d="M18.7513 16.6875C18.7513 14.1027 16.6428 12 14.0508 12H7V28.4062H14.0508C16.6428 28.4062 18.7513 26.3036 18.7513 23.7188C18.7513 22.3198 18.1328 21.0628 17.1548 20.2031C18.1328 19.3434 18.7513 18.0864 18.7513 16.6875ZM16.401 23.7188C16.401 25.0112 15.3468 26.0625 14.0508 26.0625H9.35026V21.375H14.0508C15.3468 21.375 16.401 22.4263 16.401 23.7188ZM9.35026 19.0312V14.3438H14.0508C15.3468 14.3438 16.401 15.3951 16.401 16.6875C16.401 17.9799 15.3468 19.0312 14.0508 19.0312H9.35026Z" fill="#070707" stroke="#070707" stroke-width="0.5"/>
<path d="M26.8756 16C23.6358 16 21 18.6285 21 21.8594C21 25.0903 23.6358 27.7188 26.8756 27.7188C28.9667 27.7188 30.9167 26.5966 31.9645 24.79L29.9301 23.6163C29.3009 24.7012 28.1303 25.375 26.8756 25.375C25.3434 25.375 24.0367 24.3954 23.5516 23.0312H32.7513V21.8594C32.7513 18.6285 30.1155 16 26.8756 16ZM23.5516 20.6875C24.0367 19.3234 25.3434 18.3438 26.8756 18.3438C28.4079 18.3438 29.7146 19.3234 30.1997 20.6875H23.5516Z" fill="#070707" stroke="#070707" stroke-width="0.5"/>
<path d="M22 12H31.401V14.3438H22V12Z" fill="#070707" stroke="#070707" stroke-width="0.5"/>
</g>
<defs>
<clipPath id="clip0_169_15">
<rect width="40.111" height="40" fill="white"/>
</clipPath>
</defs>
</svg>
